<svg width="83" height="76" viewBox="0 0 83 76" fill="none" xmlns="http://www.w3.org/2000/svg">
<g clip-path="url(#clip0_1499_36702)">
<path d="M6.94737 17.793C9.72012 12.3539 15.5241 9.66127 20.0259 11.7429L20.2574 11.8549L30.4708 17.0896C32.7303 16.4426 35.145 16.6076 37.2955 17.5558L37.6153 17.7031L44.5824 21.207L65.1269 31.6175C68.7977 33.4914 70.7526 37.5066 70.7239 41.9863L70.719 42.2497L74.3898 44.0172L68.0559 56.5159L64.3458 54.6371C60.8508 57.4262 56.4512 58.3055 52.7477 56.5633L52.4704 56.4275L25.0774 42.5728C25.0586 42.5811 25.0383 42.5853 25.0177 42.5853C24.9971 42.5853 24.9768 42.5811 24.958 42.5728C22.8639 41.5107 21.2225 39.7299 20.3343 37.5565L20.2181 37.2579L10.1741 32.1222C10.141 32.0828 10.0973 32.0538 10.0481 32.0388L10.0154 32.033C5.48247 29.7469 4.12554 23.3246 6.94737 17.793Z" fill="#234CD1"/>
<path d="M11.8958 53.5377L29.4018 62.889L18.2584 74.2794C18.1878 74.3666 18.0906 74.4283 17.9816 74.4551C17.8727 74.482 17.7579 74.4726 17.6548 74.4283H17.6057L0.871086 65.8671C0.79664 65.8271 0.731755 65.7715 0.68091 65.704C0.630066 65.6365 0.594472 65.5588 0.576587 65.4762C0.558701 65.3936 0.55895 65.3081 0.577316 65.2256C0.595682 65.1432 0.631727 65.0656 0.682964 64.9985L11.8958 53.5377ZM26.58 38.9133L26.6609 38.9403L43.4234 47.5007C43.5486 47.5588 43.647 47.6625 43.6987 47.7905C43.7503 47.9185 43.7513 48.0614 43.7015 48.1902L43.6606 48.272C43.6448 48.3125 43.6215 48.3497 43.5919 48.3816V48.4413L30.6279 61.7014L13.072 52.3403L26.0565 39.0884C26.1181 39.0124 26.2 38.9555 26.2927 38.9244C26.3854 38.8933 26.485 38.8899 26.58 38.9133ZM74.4692 44.1562C76.7054 45.2841 77.0514 48.9852 75.3002 52.4491C73.5483 55.9122 70.3518 57.8024 68.1156 56.6745C65.8786 55.5457 65.5326 51.8455 67.2838 48.3808C69.0358 44.9275 72.233 43.0275 74.4692 44.1562ZM27.4412 16.427C28.4595 16.416 29.4695 16.6113 30.4103 17.0012C29.5924 17.2302 28.8006 17.5419 28.0449 17.9312L27.788 18.0596H27.4216C24.1957 18.0596 20.8504 20.4741 19.0592 23.938C17.1395 27.7381 17.3775 31.9438 19.4649 34.4377C19.6152 35.3837 19.8608 36.3121 20.1977 37.2088C16.091 34.7149 14.9524 28.5895 17.6941 23.206C19.7716 19.0002 23.6911 16.427 27.4412 16.427ZM51.6967 13.8931L69.2141 23.2452L62.3951 30.2319L44.5824 21.207L51.6983 13.8931H51.6967ZM65.0852 0.536481L65.167 0.563472L82.0195 9.12383C82.158 9.19008 82.2653 9.3076 82.3187 9.45154C82.3721 9.59548 82.3675 9.75456 82.3057 9.89513C82.2907 9.93012 82.2708 9.96287 82.2468 9.99246L70.4312 22.0184L52.8851 12.6761L64.5626 0.711516C64.6153 0.646787 64.683 0.595845 64.7598 0.563075C64.8366 0.530304 64.9202 0.516686 65.0034 0.523394L65.0852 0.536481Z" fill="#5493F7"/>
</g>
<defs>
<clipPath id="clip0_1499_36702">
<rect width="82.61" height="75.2487" fill="white"/>
</clipPath>
</defs>
</svg>
